<svg width="393" height="281" viewBox="0 0 393 281" fill="none" xmlns="http://www.w3.org/2000/svg">
<g clip-path="url(#clip0_29_2)">
<path d="M40.648 273.915L47.1705 273.914L50.2738 248.533L40.6465 248.533L40.648 273.915Z" fill="#FFB6B6"/>
<path d="M40.4181 280.779L60.4771 280.778V280.522C60.4769 278.433 59.6543 276.43 58.1901 274.953C56.726 273.476 54.7402 272.646 52.6696 272.646H52.6691L49.0051 269.842L42.1688 272.647L40.4178 272.647L40.4181 280.779Z" fill="#2F2E41"/>
<path d="M51.1814 243.206L56.3166 247.264L74.2752 229.213L66.6961 223.224L51.1814 243.206Z" fill="#FFB6B6"/>
<path d="M46.8042 248.467L62.5954 260.945L62.7518 260.744C64.0286 259.099 64.6056 257.01 64.3559 254.937C64.1062 252.863 63.0502 250.975 61.4203 249.686L61.4199 249.686L60.2497 245.199L53.1536 243.154L51.7751 242.065L46.8042 248.467Z" fill="#2F2E41"/>
<path d="M81.8916 127.559C81.8916 127.559 90.5489 136.616 86.7012 157.641L89.9314 193.64L90.7651 195.307C91.2619 196.3 91.4353 197.426 91.2607 198.524C91.0861 199.622 90.5724 200.637 89.7927 201.424L89.1059 203.572L88.4647 207.777L64.577 244.004L55.4387 234.3L70.1882 200.337L66.1802 191.604L56.8816 161.199L50.4688 216.834L51.7514 264.705H39.4774L31.8717 211.335L23.8557 136.293L28.0253 127.559H81.8916Z" fill="#2F2E41"/>
<path d="M25.8547 143.121L25.7673 142.998C21.0954 136.399 28.1219 120.544 29.1816 118.246C27.9232 117.834 26.8452 116.995 26.1313 115.871C25.4174 114.747 25.1117 113.409 25.2663 112.083L25.7232 108.166L26.1994 104.323L22.7879 100.881L22.7783 100.796L20.815 83.4662L17.9605 71.9561C16.8849 67.6049 16.9766 63.0433 18.2261 58.7396C19.4755 54.436 21.8378 50.5452 25.0703 47.4668L31.6686 46.4099L39.6875 38.6157H52.6189L57.0527 42.8892C65.3298 44.3536 66.7518 43.8754 73.8616 52.4822L70.6309 79.2409L69.825 82.9221L69.8274 87.915L71.8764 90.2121C72.6144 91.0396 73.1508 92.0295 73.4426 93.103C73.7344 94.1765 73.7737 95.3039 73.5573 96.3954L73.2878 97.7544C75.401 98.668 77.4175 114.904 77.8992 117.171L78.6189 120.559C79.2346 121.379 83.2984 126.845 83.2984 128.339C83.2984 128.564 83.1343 128.78 82.782 129.021C80.0125 130.913 68.9711 144.333 62.1962 141.598C54.9797 138.687 26.2928 143.054 26.0038 143.098L25.8547 143.121Z" fill="#3F3D56"/>
<path d="M24.1174 112.005C24.1174 112.005 27.4381 93.0731 24.0927 85.953L10.8209 86.9093L12.8407 113.919L24.4426 143.907C24.2656 144.831 24.334 145.786 24.6409 146.675C24.9479 147.563 25.4824 148.354 26.1904 148.967C26.8983 149.58 27.7543 149.993 28.6716 150.164C29.5889 150.335 30.5348 150.259 31.4132 149.942C32.2916 149.625 33.0713 149.079 33.6731 148.36C34.2749 147.641 34.6774 146.774 34.8397 145.848C35.002 144.921 34.9184 143.967 34.5973 143.084C34.2762 142.2 33.7291 141.418 33.0115 140.817L24.1174 112.005Z" fill="#FFB6B6"/>
<path d="M10.8209 75.9118L11.6423 66.8884C11.9515 63.4924 12.9231 60.1915 14.5015 57.1756C16.0798 54.1598 18.2336 51.4885 20.839 49.3154C22.4579 47.9752 24.416 47.1184 26.4922 46.8419C28.5684 46.5654 30.6799 46.8803 32.588 47.7508C35.1668 48.9485 37.1985 51.0892 38.2724 53.7403C39.3463 56.3913 39.3822 59.3548 38.373 62.0316C35.3055 70.147 36.4132 78.7293 30.432 79.7756L31.0818 82.8943L25.2008 102.255L8.45094 100.298L10.8209 75.9118Z" fill="#3F3D56"/>
<path d="M99.1618 103.032C99.1618 103.032 89.4405 86.4948 82.3015 83.2979L72.8583 92.7537L91.8496 111.901L120.031 127.003C120.494 127.82 121.163 128.499 121.971 128.971C122.778 129.442 123.694 129.69 124.627 129.689C125.56 129.688 126.476 129.438 127.282 128.964C128.088 128.491 128.756 127.81 129.217 126.992C129.678 126.174 129.916 125.248 129.908 124.307C129.899 123.366 129.644 122.444 129.168 121.634C128.692 120.825 128.012 120.157 127.197 119.699C126.383 119.24 125.462 119.007 124.53 119.023L99.1618 103.032Z" fill="#FFB6B6"/>
<path d="M65.7489 84.4164L60.5385 77.0354C58.5775 74.2574 57.1802 71.1158 56.4272 67.7911C55.6741 64.4664 55.5801 61.0244 56.1505 57.6629C56.5114 55.5819 57.442 53.6442 58.8373 52.0688C60.2325 50.4933 62.0368 49.343 64.0461 48.7477C66.7753 47.9592 69.6995 48.2455 72.2273 49.5488C74.7552 50.8521 76.6982 53.0751 77.6635 55.7684C80.5842 63.9387 91.2379 77.3668 87.3799 82.0948L89.8886 84.0316L93.68 94.9275L79.7164 104.463L65.7489 84.4164Z" fill="#3F3D56"/>
<path d="M45.2807 34.8505C53.2122 34.8505 59.6419 28.3642 59.6419 20.363C59.6419 12.3618 53.2122 5.8756 45.2807 5.8756C37.3491 5.8756 30.9194 12.3618 30.9194 20.363C30.9194 28.3642 37.3491 34.8505 45.2807 34.8505Z" fill="#FFB6B6"/>
<path d="M34.8583 30.5745C34.733 30.4636 34.6147 30.3452 34.4921 30.2312C34.4877 30.2429 34.4871 30.2549 34.4824 30.2665L34.8583 30.5745Z" fill="#2F2E41"/>
<path d="M57.0496 5.06433C56.3361 3.90559 55.3478 2.94431 54.1738 2.26726C53.3715 1.87467 52.5283 1.57331 51.6599 1.36871L49.3871 0.743156C48.2226 0.37965 47.0245 0.136292 45.8113 0.0168336C44.1266 -0.0670069 42.4514 0.317806 40.9687 1.12923C39.4861 1.94066 38.253 3.1475 37.4041 4.61794C36.7174 5.84658 36.1666 7.37763 34.8414 7.82714C33.7728 8.18961 32.6068 7.67833 31.4838 7.77752C30.8257 7.87372 30.2012 8.1322 29.6658 8.53004C29.1304 8.92789 28.7006 9.45281 28.4143 10.0583C27.8546 11.2768 27.5791 12.6085 27.6091 13.9511C27.5649 16.9993 28.1547 20.0229 29.3402 22.8271C30.5258 25.6312 32.2808 28.1535 34.4922 30.2313C34.8628 29.2457 34.2523 28.1815 33.7697 27.2387C33.2814 26.2847 32.9796 24.9546 33.7975 24.2675C34.7075 23.503 36.1656 24.2444 37.2419 23.7458C37.5862 23.5463 37.8762 23.2638 38.086 22.9237C38.2957 22.5836 38.4187 22.1963 38.444 21.7965C38.5481 21.0044 38.4394 20.1991 38.4887 19.4016C38.5375 18.611 38.7411 17.838 39.0878 17.1272C39.4344 16.4165 39.9172 15.782 40.5083 15.2605C41.0993 14.739 41.7869 14.3408 42.5314 14.0889C43.2759 13.837 44.0624 13.7363 44.8457 13.7928C47.2955 13.9693 49.6729 15.658 52.0304 14.9633C53.1371 14.6372 54.0809 13.8069 55.2255 13.6672C56.493 13.5126 57.6854 14.2342 58.7617 14.9271C59.1528 13.2518 59.2027 11.5139 58.9084 9.81859C58.6141 8.12328 57.9818 6.50587 57.0496 5.06433Z" fill="#2F2E41"/>
<path d="M106.837 272.639L103.183 266.715L102.453 270.101C102.325 270.693 102.197 271.296 102.078 271.894C101.04 270.999 99.9358 270.172 98.8551 269.378C95.5372 266.949 92.2208 264.517 88.906 262.082L89.944 268.154C90.5839 271.894 91.2523 275.709 92.8354 279.128C93.0108 279.515 93.2004 279.898 93.4043 280.271H108.828C108.952 279.924 109.038 279.565 109.084 279.2C109.088 279.176 109.089 279.152 109.088 279.128C109.33 276.809 108.06 274.624 106.837 272.639Z" fill="#F0F0F0"/>
<path d="M374.207 266.241L367.578 255.495L366.254 261.636C366.022 262.711 365.79 263.804 365.575 264.888C363.692 263.266 361.689 261.766 359.728 260.326C353.71 255.92 347.695 251.508 341.682 247.091L343.565 258.106C344.725 264.888 345.938 271.809 348.809 278.011C349.128 278.713 349.471 279.407 349.841 280.084H377.818C378.043 279.455 378.199 278.804 378.282 278.141C378.289 278.098 378.292 278.054 378.291 278.011C378.729 273.804 376.425 269.841 374.207 266.241Z" fill="#F0F0F0"/>
<path d="M392.436 280.853L0.564373 281C0.414975 281 0.271848 280.939 0.16636 280.833C0.0608731 280.726 0.00163269 280.581 0.00163269 280.431C0.00163269 280.28 0.0608731 280.135 0.16636 280.029C0.271848 279.922 0.414975 279.862 0.564373 279.861L392.436 279.714C392.585 279.715 392.728 279.775 392.834 279.882C392.939 279.988 392.998 280.133 392.998 280.284C392.998 280.434 392.939 280.579 392.834 280.686C392.728 280.792 392.585 280.853 392.436 280.853Z" fill="#CACACA"/>
<path d="M122.952 113.943V251.185C122.953 252.934 123.643 254.611 124.869 255.847C126.095 257.084 127.757 257.779 129.491 257.781H331.098C332.831 257.779 334.494 257.084 335.719 255.847C336.945 254.611 337.635 252.934 337.636 251.185V113.943C337.632 112.196 336.942 110.521 335.716 109.286C334.49 108.051 332.83 107.356 331.098 107.354H129.491C127.758 107.356 126.098 108.051 124.872 109.286C123.647 110.521 122.956 112.196 122.952 113.943Z" fill="#3F3D56"/>
<path d="M127.682 115.651V249.492C127.683 250.426 128.052 251.322 128.707 251.983C129.362 252.643 130.25 253.015 131.176 253.017H329.419C330.346 253.015 331.234 252.643 331.889 251.983C332.544 251.322 332.912 250.426 332.914 249.492V115.651C332.914 114.715 332.546 113.818 331.891 113.155C331.236 112.493 330.347 112.12 329.419 112.118H131.176C130.249 112.12 129.36 112.493 128.705 113.155C128.05 113.818 127.682 114.715 127.682 115.651Z" fill="white"/>
<path d="M118.736 277.951C119.105 278.418 119.574 278.794 120.109 279.052C120.643 279.31 121.228 279.443 121.821 279.439H337.694C338.285 279.439 338.867 279.305 339.4 279.049C339.933 278.792 340.402 278.419 340.774 277.957C341.146 277.494 341.411 276.954 341.55 276.375C341.689 275.796 341.698 275.193 341.577 274.61L338.226 258.553C338.087 257.898 337.788 257.289 337.356 256.781C336.924 256.272 336.373 255.881 335.753 255.642C335.304 255.465 334.826 255.374 334.343 255.374H125.158C124.676 255.374 124.198 255.465 123.749 255.642C123.129 255.881 122.577 256.272 122.145 256.781C121.713 257.289 121.414 257.898 121.276 258.553L117.924 274.61C117.805 275.193 117.816 275.795 117.956 276.373C118.097 276.951 118.363 277.49 118.736 277.951Z" fill="#2F2E41"/>
<path d="M326.393 262.29H332.579C332.706 262.29 332.81 262.186 332.81 262.057V258.499C332.81 258.37 332.706 258.266 332.579 258.266H326.393C326.265 258.266 326.161 258.37 326.161 258.499V262.057C326.161 262.186 326.265 262.29 326.393 262.29Z" fill="#3F3D56"/>
<path d="M313.095 262.29H319.281C319.409 262.29 319.512 262.186 319.512 262.057V258.499C319.512 258.37 319.409 258.266 319.281 258.266H313.095C312.967 258.266 312.864 258.37 312.864 258.499V262.057C312.864 262.186 312.967 262.29 313.095 262.29Z" fill="#3F3D56"/>
<path d="M299.797 262.29H305.983C306.111 262.29 306.215 262.186 306.215 262.057V258.499C306.215 258.37 306.111 258.266 305.983 258.266H299.797C299.67 258.266 299.566 258.37 299.566 258.499V262.057C299.566 262.186 299.67 262.29 299.797 262.29Z" fill="#3F3D56"/>
<path d="M286.5 262.29H292.686C292.814 262.29 292.917 262.186 292.917 262.057V258.499C292.917 258.37 292.814 258.266 292.686 258.266H286.5C286.372 258.266 286.268 258.37 286.268 258.499V262.057C286.268 262.186 286.372 262.29 286.5 262.29Z" fill="#3F3D56"/>
<path d="M273.202 262.29H279.388C279.516 262.29 279.62 262.186 279.62 262.057V258.499C279.62 258.37 279.516 258.266 279.388 258.266H273.202C273.074 258.266 272.971 258.37 272.971 258.499V262.057C272.971 262.186 273.074 262.29 273.202 262.29Z" fill="#3F3D56"/>
<path d="M259.904 262.29H266.091C266.218 262.29 266.322 262.186 266.322 262.057V258.499C266.322 258.37 266.218 258.266 266.091 258.266H259.904C259.777 258.266 259.673 258.37 259.673 258.499V262.057C259.673 262.186 259.777 262.29 259.904 262.29Z" fill="#3F3D56"/>
<path d="M246.607 262.29H252.793C252.921 262.29 253.024 262.186 253.024 262.057V258.499C253.024 258.37 252.921 258.266 252.793 258.266H246.607C246.479 258.266 246.375 258.37 246.375 258.499V262.057C246.375 262.186 246.479 262.29 246.607 262.29Z" fill="#3F3D56"/>
<path d="M233.309 262.29H239.495C239.623 262.29 239.727 262.186 239.727 262.057V258.499C239.727 258.37 239.623 258.266 239.495 258.266H233.309C233.181 258.266 233.078 258.37 233.078 258.499V262.057C233.078 262.186 233.181 262.29 233.309 262.29Z" fill="#3F3D56"/>
<path d="M220.012 262.29H226.198C226.325 262.29 226.429 262.186 226.429 262.057V258.499C226.429 258.37 226.325 258.266 226.198 258.266H220.012C219.884 258.266 219.78 258.37 219.78 258.499V262.057C219.78 262.186 219.884 262.29 220.012 262.29Z" fill="#3F3D56"/>
<path d="M206.714 262.29H212.9C213.028 262.29 213.131 262.186 213.131 262.057V258.499C213.131 258.37 213.028 258.266 212.9 258.266H206.714C206.586 258.266 206.483 258.37 206.483 258.499V262.057C206.483 262.186 206.586 262.29 206.714 262.29Z" fill="#3F3D56"/>
<path d="M193.416 262.29H199.602C199.73 262.29 199.834 262.186 199.834 262.057V258.499C199.834 258.37 199.73 258.266 199.602 258.266H193.416C193.289 258.266 193.185 258.37 193.185 258.499V262.057C193.185 262.186 193.289 262.29 193.416 262.29Z" fill="#3F3D56"/>
<path d="M180.119 262.29H186.305C186.433 262.29 186.536 262.186 186.536 262.057V258.499C186.536 258.37 186.433 258.266 186.305 258.266H180.119C179.991 258.266 179.887 258.37 179.887 258.499V262.057C179.887 262.186 179.991 262.29 180.119 262.29Z" fill="#3F3D56"/>
<path d="M166.821 262.29H173.007C173.135 262.29 173.239 262.186 173.239 262.057V258.499C173.239 258.37 173.135 258.266 173.007 258.266H166.821C166.693 258.266 166.59 258.37 166.59 258.499V262.057C166.59 262.186 166.693 262.29 166.821 262.29Z" fill="#3F3D56"/>
<path d="M153.524 262.29H159.71C159.837 262.29 159.941 262.186 159.941 262.057V258.499C159.941 258.37 159.837 258.266 159.71 258.266H153.524C153.396 258.266 153.292 258.37 153.292 258.499V262.057C153.292 262.186 153.396 262.29 153.524 262.29Z" fill="#3F3D56"/>
<path d="M140.226 262.29H146.412C146.54 262.29 146.643 262.186 146.643 262.057V258.499C146.643 258.37 146.54 258.266 146.412 258.266H140.226C140.098 258.266 139.995 258.37 139.995 258.499V262.057C139.995 262.186 140.098 262.29 140.226 262.29Z" fill="#3F3D56"/>
<path d="M126.928 262.29H133.114C133.242 262.29 133.346 262.186 133.346 262.057V258.499C133.346 258.37 133.242 258.266 133.114 258.266H126.928C126.8 258.266 126.697 258.37 126.697 258.499V262.057C126.697 262.186 126.8 262.29 126.928 262.29Z" fill="#3F3D56"/>
<path d="M326.55 268.997H332.736C332.864 268.997 332.967 268.893 332.967 268.764V265.207C332.967 265.078 332.864 264.973 332.736 264.973H326.55C326.422 264.973 326.318 265.078 326.318 265.207V268.764C326.318 268.893 326.422 268.997 326.55 268.997Z" fill="#3F3D56"/>
<path d="M313.252 268.997H319.438C319.566 268.997 319.67 268.893 319.67 268.764V265.207C319.67 265.078 319.566 264.973 319.438 264.973H313.252C313.124 264.973 313.021 265.078 313.021 265.207V268.764C313.021 268.893 313.124 268.997 313.252 268.997Z" fill="#3F3D56"/>
<path d="M299.954 268.997H306.141C306.268 268.997 306.372 268.893 306.372 268.764V265.207C306.372 265.078 306.268 264.973 306.141 264.973H299.954C299.827 264.973 299.723 265.078 299.723 265.207V268.764C299.723 268.893 299.827 268.997 299.954 268.997Z" fill="#3F3D56"/>
<path d="M286.657 268.997H292.843C292.971 268.997 293.074 268.893 293.074 268.764V265.207C293.074 265.078 292.971 264.973 292.843 264.973H286.657C286.529 264.973 286.425 265.078 286.425 265.207V268.764C286.425 268.893 286.529 268.997 286.657 268.997Z" fill="#3F3D56"/>
<path d="M273.359 268.997H279.545C279.673 268.997 279.777 268.893 279.777 268.764V265.207C279.777 265.078 279.673 264.973 279.545 264.973H273.359C273.231 264.973 273.128 265.078 273.128 265.207V268.764C273.128 268.893 273.231 268.997 273.359 268.997Z" fill="#3F3D56"/>
<path d="M260.062 268.997H266.248C266.375 268.997 266.479 268.893 266.479 268.764V265.207C266.479 265.078 266.375 264.973 266.248 264.973H260.062C259.934 264.973 259.83 265.078 259.83 265.207V268.764C259.83 268.893 259.934 268.997 260.062 268.997Z" fill="#3F3D56"/>
<path d="M246.764 268.997H252.95C253.078 268.997 253.181 268.893 253.181 268.764V265.207C253.181 265.078 253.078 264.973 252.95 264.973H246.764C246.636 264.973 246.533 265.078 246.533 265.207V268.764C246.533 268.893 246.636 268.997 246.764 268.997Z" fill="#3F3D56"/>
<path d="M233.466 268.997H239.652C239.78 268.997 239.884 268.893 239.884 268.764V265.207C239.884 265.078 239.78 264.973 239.652 264.973H233.466C233.339 264.973 233.235 265.078 233.235 265.207V268.764C233.235 268.893 233.339 268.997 233.466 268.997Z" fill="#3F3D56"/>
<path d="M220.169 268.997H226.355C226.483 268.997 226.586 268.893 226.586 268.764V265.207C226.586 265.078 226.483 264.973 226.355 264.973H220.169C220.041 264.973 219.937 265.078 219.937 265.207V268.764C219.937 268.893 220.041 268.997 220.169 268.997Z" fill="#3F3D56"/>
<path d="M206.871 268.997H213.057C213.185 268.997 213.289 268.893 213.289 268.764V265.207C213.289 265.078 213.185 264.973 213.057 264.973H206.871C206.743 264.973 206.64 265.078 206.64 265.207V268.764C206.64 268.893 206.743 268.997 206.871 268.997Z" fill="#3F3D56"/>
<path d="M193.574 268.997H199.76C199.887 268.997 199.991 268.893 199.991 268.764V265.207C199.991 265.078 199.887 264.973 199.76 264.973H193.574C193.446 264.973 193.342 265.078 193.342 265.207V268.764C193.342 268.893 193.446 268.997 193.574 268.997Z" fill="#3F3D56"/>
<path d="M180.276 268.997H186.462C186.59 268.997 186.693 268.893 186.693 268.764V265.207C186.693 265.078 186.59 264.973 186.462 264.973H180.276C180.148 264.973 180.045 265.078 180.045 265.207V268.764C180.045 268.893 180.148 268.997 180.276 268.997Z" fill="#3F3D56"/>
<path d="M166.978 268.997H173.164C173.292 268.997 173.396 268.893 173.396 268.764V265.207C173.396 265.078 173.292 264.973 173.164 264.973H166.978C166.85 264.973 166.747 265.078 166.747 265.207V268.764C166.747 268.893 166.85 268.997 166.978 268.997Z" fill="#3F3D56"/>
<path d="M153.681 268.997H159.867C159.994 268.997 160.098 268.893 160.098 268.764V265.207C160.098 265.078 159.994 264.973 159.867 264.973H153.681C153.553 264.973 153.449 265.078 153.449 265.207V268.764C153.449 268.893 153.553 268.997 153.681 268.997Z" fill="#3F3D56"/>
<path d="M140.383 268.997H146.569C146.697 268.997 146.8 268.893 146.8 268.764V265.207C146.8 265.078 146.697 264.973 146.569 264.973H140.383C140.255 264.973 140.152 265.078 140.152 265.207V268.764C140.152 268.893 140.255 268.997 140.383 268.997Z" fill="#3F3D56"/>
<path d="M127.085 268.997H133.271C133.399 268.997 133.503 268.893 133.503 268.764V265.207C133.503 265.078 133.399 264.973 133.271 264.973H127.085C126.958 264.973 126.854 265.078 126.854 265.207V268.764C126.854 268.893 126.958 268.997 127.085 268.997Z" fill="#3F3D56"/>
<path d="M201.486 277.046H254.213C254.341 277.046 254.445 276.942 254.445 276.813V273.255C254.445 273.126 254.341 273.022 254.213 273.022H201.486C201.358 273.022 201.254 273.126 201.254 273.255V276.813C201.254 276.942 201.358 277.046 201.486 277.046Z" fill="#3F3D56"/>
<path d="M275.459 193.193C275.437 204.492 271.227 215.373 263.655 223.699C256.083 232.024 245.698 237.191 234.541 238.183C223.384 239.176 212.263 235.922 203.364 229.063C194.464 222.203 188.431 212.233 186.449 201.113C184.467 189.992 186.68 178.527 192.653 168.969C198.627 159.412 207.928 152.454 218.729 149.464C229.53 146.474 241.048 147.668 251.021 152.812C260.993 157.955 268.697 166.675 272.619 177.258C272.717 177.524 272.813 177.79 272.905 178.058V178.06C273.319 179.24 273.684 180.441 273.999 181.665C274.972 185.429 275.463 189.303 275.459 193.193Z" fill="#3F3D56"/>
<path d="M225.357 162.456C223.327 161.349 221.074 160.724 218.768 160.628C216.463 160.533 214.166 160.97 212.054 161.907C210.194 162.723 208.236 164.188 207.615 166.833C210.125 165.339 213.373 167.7 214.019 171.486L213.868 171.528C213.527 174.151 214.288 177.007 215.762 178.633C215.872 177.899 216.142 177.199 216.554 176.584C216.965 175.969 217.507 175.454 218.14 175.076C219.223 174.358 220.421 173.836 221.248 172.601C222.228 171.138 222.477 168.999 222.866 167.048C223.255 165.097 223.994 162.999 225.357 162.456Z" fill="#226DFF"/>
<path d="M211.31 184.775C210.615 185.828 209.686 186.489 208.853 187.311C207.892 188.194 207.261 189.384 207.067 190.68C206.962 191.596 207.125 192.528 207.102 193.454C207.08 194.381 206.773 195.423 206.149 195.654C205.163 196.013 204.41 194.165 203.396 194.036C202.591 193.935 201.866 195.213 202.099 196.322C202.333 197.43 203.429 197.921 204.059 197.198C204.628 198.162 204.227 199.911 203.371 200.207C203.281 200.814 203.191 201.419 203.103 202.027C200.94 200.501 198.755 198.949 196.916 196.714C194.87 194.25 193.602 191.225 193.273 188.028C193.034 185.459 193.388 182.52 192.219 180.543C191.283 178.962 189.677 178.612 188.232 178.711C187.969 178.729 187.703 178.759 187.439 178.792C188.291 176.21 189.374 173.711 190.673 171.325C190.967 171.198 191.241 171.027 191.484 170.817C192.828 169.665 193.426 167.334 194.517 165.722C194.587 165.618 194.66 165.517 194.735 165.418C195.852 163.947 197.347 163.191 198.792 162.487C201.991 160.92 205.283 159.333 208.66 159.551L207.699 159.645C206.578 162.814 205.455 165.982 204.332 169.151C204.162 169.637 203.989 170.124 203.815 170.612C203.178 172.414 202.521 174.332 202.619 176.349C202.676 177.544 203.088 178.82 203.871 179.23C204.601 179.609 205.399 179.144 206.104 178.683C206.402 178.491 206.698 178.298 206.997 178.103C208.068 177.407 209.255 176.694 210.386 177.159C211.423 177.585 212.188 179.005 212.333 180.536C212.467 182.024 212.107 183.515 211.31 184.775Z" fill="#226DFF"/>
<path d="M217.681 206.41C214.553 204.466 211.424 202.523 208.295 200.579L208.348 200.441C206.402 201.189 205.595 204.677 205.916 207.53C206.238 210.383 207.328 212.933 207.878 215.713C208.621 219.517 208.341 223.452 207.067 227.11C211.181 222.453 214.822 217.392 217.936 212.002C218.371 211.322 218.702 210.581 218.919 209.802C219.149 208.973 219.067 208.087 218.689 207.314C218.433 206.933 218.087 206.622 217.681 206.41Z" fill="#226DFF"/>
<path d="M205.333 171.052C204.965 171.848 204.909 172.755 205.174 173.591C205.483 174.264 206.043 174.788 206.732 175.047L208.461 175.911C209.036 176.199 209.656 176.489 210.243 176.253C210.95 175.967 211.44 174.849 211.313 173.81C211.178 172.705 210.488 171.945 209.849 171.298C208.956 170.392 208.062 169.487 207.169 168.581L206.665 169.203C206.12 169.739 205.67 170.364 205.333 171.052Z" fill="#226DFF"/>
<path d="M266.191 182.864C266.969 183.049 267.747 183.234 268.525 183.419C268.389 186.069 267.087 188.521 265.341 189.41C264.613 189.779 263.803 189.916 263.201 190.607C262.656 191.234 262.38 192.211 262.127 193.145C261.683 194.775 261.239 196.405 260.794 198.035C260.318 199.792 259.706 201.743 258.466 202.376C257.402 202.92 256.185 202.255 255.368 201.138C254.55 200.022 254.05 198.521 253.566 197.058C253.596 198.653 252.861 200.217 251.82 200.771C250.776 201.326 249.507 200.825 248.809 199.587C248.307 198.698 248.099 197.527 247.607 196.626C247.115 195.725 246.084 195.208 245.547 196.054C245.194 196.615 245.239 197.476 245.063 198.19C244.975 198.664 244.742 199.098 244.398 199.432C244.053 199.767 243.614 199.984 243.141 200.055C242.706 200.045 242.278 199.946 241.883 199.764C241.487 199.581 241.133 199.32 240.84 198.995C239.304 197.409 238.304 195.374 237.983 193.181C237.765 192.129 237.793 191.041 238.063 190.002C238.372 189.017 239.117 188.258 239.857 188.445C240.344 187.408 239.383 186.031 238.517 186.152C237.649 186.274 236.969 187.213 236.257 187.934C235.547 188.655 234.553 189.179 233.838 188.463C233.846 188.599 233.826 188.736 233.78 188.864C233.733 188.992 233.661 189.109 233.568 189.208C233.474 189.307 233.361 189.385 233.236 189.437C233.111 189.49 232.977 189.516 232.842 189.513C232.366 189.376 231.925 189.139 231.545 188.82C229.906 187.79 227.826 188.473 226.662 190.422C227.39 187.299 228.456 183.715 230.692 182.981C231.605 182.68 232.601 182.928 233.464 182.406C234.992 181.482 235.301 177.992 233.981 176.552C234.149 177.914 234.116 179.503 233.404 180.435C232.691 181.366 231.196 180.759 231.286 179.382C231.266 179.575 231.185 179.758 231.056 179.902C230.927 180.047 230.756 180.147 230.567 180.187C230.378 180.227 230.181 180.207 230.005 180.127C229.829 180.048 229.682 179.915 229.585 179.746C229.111 179.017 229.151 177.825 229.487 176.954C229.834 176.166 230.331 175.454 230.95 174.859C232.142 173.57 233.351 172.267 234.731 171.457C236.114 170.647 237.709 170.374 239.094 171.179C239.824 171.604 240.467 172.313 241.212 172.687C241.39 172.799 241.589 172.873 241.797 172.906C242.004 172.939 242.216 172.929 242.42 172.878C242.624 172.826 242.816 172.734 242.983 172.606C243.151 172.479 243.292 172.319 243.397 172.135C243.952 171.153 243.691 169.695 243.896 168.468C244.265 166.299 246.415 165.284 247.607 166.716C246.717 166.486 245.796 167.549 245.685 168.837C245.572 170.126 246.217 171.427 247.08 171.816C248.531 172.464 249.951 170.834 251.047 169.326C252.191 167.747 253.337 166.168 254.484 164.59C254.668 164.322 254.873 164.069 255.099 163.836C255.458 163.483 255.938 163.28 256.439 163.27C256.941 163.26 257.428 163.442 257.801 163.78C258.96 164.735 259.505 166.691 260.456 168.038C261.836 169.994 263.901 170.47 265.822 170.85C267.255 171.131 268.689 171.413 270.123 171.697C271.079 173.492 271.913 175.35 272.619 177.258C269.989 178.468 267.758 180.414 266.191 182.864Z" fill="#226DFF"/>
<path d="M273.999 181.665C273.705 182.539 273.545 183.453 273.523 184.375C272.293 182.862 272.097 180.025 272.905 178.06C273.319 179.24 273.684 180.441 273.999 181.665Z" fill="#226DFF"/>
<path d="M270.823 213.318C269.748 215.52 268.498 217.63 267.085 219.628C266.181 219.238 265.21 219.934 264.365 220.587C263.482 221.27 262.42 221.936 261.515 221.313C260.589 220.675 260.29 218.891 260.584 217.476C260.921 216.171 261.511 214.946 262.32 213.872C263.073 212.738 263.878 211.561 264.924 211.121C265.973 210.68 267.32 211.303 267.626 212.806L268.369 212.781C267.953 212.204 268.171 211.009 268.73 210.799C269.375 210.554 269.935 211.447 270.316 212.237C270.487 212.594 270.66 212.953 270.823 213.318Z" fill="#226DFF"/>
<path d="M242.38 202.627C240.783 202.728 239.519 200.746 238.679 198.795C237.838 196.845 237.072 194.615 235.631 193.622C234.808 193.055 233.87 192.977 232.977 192.702C232.471 192.573 232.003 192.325 231.611 191.976C231.219 191.628 230.915 191.191 230.724 190.701L229.711 190.288C228.295 191.002 226.997 191.935 225.866 193.053C224.574 194.438 223.769 196.214 223.576 198.106C223.382 200.15 224.096 202.43 225.431 203.198C226.486 203.805 227.714 203.423 228.782 203.978C230.116 204.672 230.909 206.689 231.209 208.68C231.509 210.671 231.433 212.74 231.647 214.754C231.862 216.767 232.453 218.863 233.677 219.895C235.209 221.186 237.456 220.113 238.144 217.762C238.481 216.609 238.469 215.308 238.721 214.111C239.165 212.003 240.363 210.44 241.313 208.711C242.264 206.982 243.012 204.633 242.38 202.627Z" fill="#226DFF"/>
<path d="M226.606 181.915C226.755 182.053 226.893 182.202 227.021 182.36C227.154 182.59 227.221 182.853 227.217 183.119C227.212 183.385 227.136 183.645 226.996 183.871C227.188 183.859 227.376 183.808 227.548 183.72C227.719 183.632 227.871 183.509 227.993 183.359C228.285 183.024 228.541 182.66 228.758 182.272C228.86 182.14 228.933 181.986 228.972 181.823C229.011 181.659 229.015 181.489 228.984 181.324C228.908 181.107 228.73 181.015 228.605 180.851C228.432 180.532 228.313 180.185 228.255 179.826C228.186 179.49 228.025 179.179 227.79 178.93C227.556 178.68 227.257 178.502 226.927 178.414L227.007 178.43C226.871 178.511 226.763 178.634 226.7 178.78C226.636 178.926 226.619 179.089 226.652 179.245C226.7 179.561 226.901 179.823 226.881 180.145C226.852 180.609 226.393 180.826 226.365 181.289C226.361 181.522 226.447 181.746 226.606 181.915Z" fill="#226DFF"/>
<path d="M223.871 174.043L223.878 174.042C223.927 173.997 223.973 173.948 224.014 173.896L223.871 174.043Z" fill="#226DFF"/>
<path d="M224.349 176.218C224.541 176.048 224.683 175.828 224.759 175.583C224.836 175.337 224.844 175.075 224.783 174.826C224.667 174.299 224.256 173.945 223.878 174.042C223.768 174.154 223.632 174.237 223.482 174.281C223.332 174.326 223.173 174.331 223.02 174.297C222.786 174.236 222.529 174.079 222.326 174.257C222.21 174.39 222.129 174.55 222.09 174.723C222.015 174.956 221.94 175.188 221.864 175.421C221.829 175.504 221.819 175.597 221.838 175.685C221.852 175.721 221.875 175.752 221.905 175.776C221.935 175.8 221.971 175.816 222.008 175.822C222.459 175.956 222.91 176.09 223.361 176.224C223.516 176.296 223.685 176.333 223.856 176.332C224.027 176.331 224.195 176.292 224.349 176.218Z" fill="#226DFF"/>
<path d="M258.382 206.235C258.173 205.891 257.965 205.547 257.757 205.203C257.552 204.804 257.272 204.45 256.933 204.16C256.858 204.096 256.772 204.049 256.679 204.02C256.586 203.991 256.488 203.982 256.391 203.991C256.295 204.001 256.201 204.03 256.115 204.077C256.03 204.124 255.954 204.188 255.894 204.265L255.919 204.461C256.477 205.065 256.857 205.813 257.017 206.622C257.065 206.974 257.048 207.338 257.09 207.691C257.094 207.855 257.13 208.016 257.197 208.166C257.263 208.316 257.358 208.451 257.476 208.563C257.804 208.784 258.189 208.458 258.423 208.06C258.632 207.734 258.725 207.346 258.689 206.958C258.637 206.699 258.532 206.453 258.382 206.235Z" fill="#226DFF"/>
<path d="M261.651 206.683C261.691 206.361 261.665 206.034 261.575 205.723C261.56 205.301 261.67 204.884 261.893 204.527C262.113 204.189 262.281 203.819 262.389 203.43C262.434 203.253 262.426 203.066 262.365 202.893C262.296 202.737 262.129 202.665 262.033 202.789L262.238 202.923C261.961 202.873 261.676 202.887 261.406 202.963C261.251 203.023 261.113 203.119 261.003 203.244C260.894 203.369 260.815 203.519 260.775 203.68C260.741 203.933 260.686 204.182 260.609 204.425C260.487 204.678 260.25 204.763 260.102 204.985C260 205.183 259.949 205.402 259.952 205.625C259.956 205.847 260.015 206.065 260.122 206.259C260.309 206.576 260.606 206.812 260.956 206.92C261.206 207.011 261.536 207.016 261.651 206.683Z" fill="#226DFF"/>
<path d="M267.472 208.455C267.563 208.693 267.684 208.917 267.833 209.123C268.112 209.406 268.49 209.232 268.829 209.163C269.135 209.115 269.45 209.15 269.738 209.267C270.026 209.384 270.278 209.577 270.466 209.826C270.335 209.166 270.049 208.548 269.632 208.023C269.214 207.498 268.679 207.082 268.069 206.809C267.277 206.532 266.442 206.401 265.604 206.42L265.46 206.457C265.825 207.528 266.971 207.504 267.472 208.455Z" fill="#226DFF"/>
<path d="M242.816 210.646L242.818 210.651L242.86 210.57L242.816 210.646Z" fill="#226DFF"/>
<path d="M241.933 212.371C241.741 212.724 241.575 213.091 241.438 213.469C241.256 214.081 241.136 214.711 241.079 215.347C241.034 215.71 241.02 216.172 241.245 216.348C241.309 216.392 241.387 216.41 241.464 216.399C241.541 216.389 241.611 216.35 241.662 216.291C241.787 216.158 241.889 216.005 241.964 215.838C242.406 215.07 242.75 214.248 242.986 213.393C243.232 212.485 243.173 211.521 242.818 210.651C242.523 211.224 242.228 211.798 241.933 212.371Z" fill="#226DFF"/>
<path d="M233.413 166.429C233.554 166.567 233.731 166.661 233.924 166.699C234.116 166.737 234.315 166.717 234.497 166.642C234.873 166.476 235.218 166.246 235.517 165.963C235.764 165.778 235.974 165.547 236.135 165.282C236.223 165.124 236.28 164.95 236.302 164.77C236.323 164.589 236.31 164.407 236.261 164.232C236.192 164.064 236.082 163.917 235.941 163.804C235.799 163.692 235.632 163.617 235.455 163.588C234.954 163.438 234.454 163.289 233.954 163.139L234.315 162.81C233.943 162.608 233.531 162.983 233.298 163.446C233.149 163.748 233.045 164.071 232.989 164.405C232.91 164.753 232.907 165.114 232.98 165.464C233.054 165.813 233.201 166.143 233.413 166.429Z" fill="#226DFF"/>
<path d="M242.247 163.437C242.389 163.594 242.583 163.691 242.793 163.708C243.002 163.725 243.21 163.661 243.374 163.529C243.516 163.422 243.633 163.286 243.719 163.13C243.805 162.974 243.857 162.802 243.872 162.624C243.908 162.227 243.713 161.786 243.435 161.751L243.499 161.38C242.963 161.282 242.305 161.263 242.018 161.918C241.921 162.17 241.891 162.442 241.931 162.709C241.972 162.975 242.081 163.226 242.247 163.437Z" fill="#226DFF"/>
<path d="M322.091 136.348H138.504C138.378 136.345 138.258 136.293 138.17 136.202C138.082 136.111 138.033 135.989 138.033 135.862C138.033 135.735 138.082 135.613 138.17 135.523C138.258 135.432 138.378 135.38 138.504 135.377H322.091C322.217 135.38 322.337 135.432 322.425 135.523C322.513 135.613 322.562 135.735 322.562 135.862C322.562 135.989 322.513 136.111 322.425 136.202C322.337 136.293 322.217 136.345 322.091 136.348Z" fill="#CACACA"/>
<path d="M149.1 129.551C151.96 129.551 154.279 127.16 154.279 124.21C154.279 121.261 151.96 118.87 149.1 118.87C146.24 118.87 143.922 121.261 143.922 124.21C143.922 127.16 146.24 129.551 149.1 129.551Z" fill="#3F3D56"/>
<path d="M166.989 129.551C169.849 129.551 172.168 127.16 172.168 124.21C172.168 121.261 169.849 118.87 166.989 118.87C164.129 118.87 161.811 121.261 161.811 124.21C161.811 127.16 164.129 129.551 166.989 129.551Z" fill="#3F3D56"/>
<path d="M184.879 129.551C187.739 129.551 190.057 127.16 190.057 124.21C190.057 121.261 187.739 118.87 184.879 118.87C182.019 118.87 179.7 121.261 179.7 124.21C179.7 127.16 182.019 129.551 184.879 129.551Z" fill="#3F3D56"/>
<path d="M311.371 120.194H298.664C298.412 120.199 298.172 120.303 297.995 120.485C297.819 120.666 297.72 120.91 297.72 121.164C297.72 121.419 297.819 121.663 297.995 121.844C298.172 122.026 298.412 122.13 298.664 122.135H311.371C311.623 122.13 311.863 122.026 312.039 121.844C312.216 121.663 312.314 121.419 312.314 121.164C312.314 120.91 312.216 120.666 312.039 120.485C311.863 120.303 311.623 120.199 311.371 120.194Z" fill="#3F3D56"/>
<path d="M311.371 123.837H298.664C298.412 123.842 298.172 123.947 297.995 124.128C297.819 124.31 297.72 124.554 297.72 124.808C297.72 125.062 297.819 125.306 297.995 125.488C298.172 125.669 298.412 125.774 298.664 125.779H311.371C311.623 125.774 311.863 125.669 312.039 125.488C312.216 125.306 312.314 125.062 312.314 124.808C312.314 124.554 312.216 124.31 312.039 124.128C311.863 123.947 311.623 123.842 311.371 123.837Z" fill="#3F3D56"/>
<path d="M311.371 127.476H298.664C298.412 127.481 298.172 127.586 297.995 127.767C297.819 127.949 297.72 128.193 297.72 128.447C297.72 128.701 297.819 128.945 297.995 129.126C298.172 129.308 298.412 129.412 298.664 129.417H311.371C311.623 129.412 311.863 129.308 312.039 129.126C312.216 128.945 312.314 128.701 312.314 128.447C312.314 128.193 312.216 127.949 312.039 127.767C311.863 127.586 311.623 127.481 311.371 127.476Z" fill="#3F3D56"/>
<g opacity="0.35">
<path d="M326.955 195.438C329.91 194.138 323.918 193.382 317.119 193.133C310.321 192.884 302.096 192.898 297.751 192.19C293.549 191.506 293.859 190.289 293.506 189.187C293.152 188.085 291.537 186.954 284.98 186.709C276.809 186.404 263.336 187.579 257.168 186.874C251.412 186.215 254.833 184.149 246.44 184.07C241.648 184.025 235.474 184.706 230.141 184.871C226.361 185.036 222.574 184.837 218.831 184.276C216.232 183.846 214.421 183.302 211.496 182.922C203.816 181.926 188.79 182.261 175.378 183.537C161.967 184.814 150.471 186.907 143.987 188.979C137.504 191.052 135.713 193.092 137.223 194.823C138.187 195.927 140.655 196.961 146.641 197.405C157.838 198.235 177.773 196.806 189.343 197.561C195.792 197.982 198.653 199.026 204.311 199.598C210.389 200.211 219.287 200.244 228.03 200.229C246.233 200.199 264.902 200.01 283.938 199.664C291.889 199.52 300.221 199.332 308.682 198.643C317.142 197.955 325.772 196.626 327.557 195.38" fill="white"/>
</g>
</g>
<defs>
<clipPath id="clip0_29_2">
<rect width="393" height="281" fill="white"/>
</clipPath>
</defs>
</svg>
