<svg width="40" height="40" viewBox="0 0 40 40" fill="none" xmlns="http://www.w3.org/2000/svg">
<path d="M4.05664 36.0858L6.30164 27.89C4.91664 25.4917 4.18831 22.77 4.18914 19.9825C4.19331 11.2617 11.29 4.16667 20.0116 4.16667C24.2441 4.16833 28.2158 5.81583 31.2033 8.805C34.19 11.795 35.835 15.7683 35.8333 19.995C35.83 28.7158 28.7316 35.8117 20.0116 35.8117H20.005C17.3575 35.8108 14.755 35.1467 12.4441 33.8858L4.05664 36.0858Z" fill="white"/>
<path d="M4.05668 36.5025C3.94668 36.5025 3.84002 36.4592 3.76085 36.3792C3.65668 36.2733 3.61585 36.1192 3.65502 35.9767L5.85418 27.9467C4.49085 25.525 3.77168 22.775 3.77335 19.9833C3.77668 11.0317 11.0609 3.75 20.0117 3.75C24.3534 3.75167 28.4325 5.4425 31.4984 8.51083C34.5642 11.58 36.2517 15.6583 36.25 19.995C36.2467 28.9458 28.9617 36.2283 20.0117 36.2283C17.3542 36.2275 14.725 35.5717 12.3917 34.3308L4.16252 36.4883C4.12752 36.4983 4.09252 36.5025 4.05668 36.5025Z" fill="white"/>
<path d="M20.0116 4.16667C24.2441 4.16833 28.2158 5.81583 31.2033 8.805C34.19 11.795 35.835 15.7683 35.8333 19.995C35.83 28.7158 28.7316 35.8117 20.0116 35.8117H20.005C17.3575 35.8108 14.755 35.1467 12.4441 33.8858L4.05664 36.0858L6.30164 27.89C4.91664 25.4917 4.1883 22.77 4.18914 19.9825C4.1933 11.2617 11.29 4.16667 20.0116 4.16667ZM20.0116 3.33333C10.8316 3.33333 3.35997 10.8017 3.3558 19.9825C3.35497 22.7883 4.0633 25.5533 5.40664 28.0008L3.25247 35.8667C3.17414 36.1542 3.25414 36.4608 3.46414 36.6725C3.62247 36.8325 3.83664 36.92 4.05664 36.92C4.12747 36.92 4.1983 36.9108 4.2683 36.8925L12.3408 34.7758C14.6975 35.9992 17.3391 36.645 20.005 36.6458C29.1916 36.6458 36.6633 29.1767 36.6675 19.9958C36.6691 15.5467 34.9383 11.3633 31.7941 8.21667C28.6483 5.06917 24.4641 3.335 20.0116 3.33333Z" fill="#CFD8DC"/>
<path d="M29.3133 10.6933C26.83 8.20833 23.5292 6.83917 20.0158 6.83833C12.7625 6.83833 6.86332 12.735 6.85999 19.9833C6.85915 22.4675 7.55415 24.8858 8.87082 26.98L9.18415 27.4775L7.85499 32.3283L12.8325 31.0233L13.3133 31.3083C15.3317 32.5067 17.6467 33.14 20.0067 33.1408H20.0117C27.26 33.1408 33.1591 27.2433 33.1616 19.9942C33.1625 16.4817 31.7966 13.1783 29.3133 10.6933Z" fill="#40C351"/>
<path fill-rule="evenodd" clip-rule="evenodd" d="M16.0567 13.3708C15.7608 12.7125 15.4492 12.6992 15.1667 12.6875C14.9358 12.6775 14.6725 12.6783 14.4092 12.6783C14.1458 12.6783 13.7175 12.7775 13.355 13.1733C12.9925 13.5692 11.9708 14.525 11.9708 16.47C11.9708 18.415 13.3875 20.295 13.585 20.5583C13.7825 20.8217 16.32 24.9408 20.3383 26.5258C23.6775 27.8425 24.3575 27.5808 25.0825 27.515C25.8075 27.4492 27.4217 26.5592 27.7508 25.6358C28.08 24.7125 28.08 23.9217 27.9817 23.7567C27.8825 23.5917 27.6192 23.4933 27.2242 23.295C26.8292 23.0967 24.885 22.1408 24.5225 22.0092C24.16 21.8775 23.8967 21.8117 23.6325 22.2075C23.3692 22.6025 22.6117 23.4933 22.3808 23.7567C22.15 24.0208 21.9192 24.0542 21.5242 23.8558C21.1292 23.6575 19.8558 23.2408 18.345 21.8942C17.17 20.8467 16.3767 19.5525 16.1458 19.1567C15.915 18.7617 16.1208 18.5475 16.3192 18.35C16.4967 18.1725 16.7142 17.8883 16.9125 17.6575C17.11 17.4267 17.1758 17.2617 17.3075 16.9983C17.4392 16.7342 17.3733 16.5033 17.2742 16.3058C17.1767 16.1075 16.4083 14.1525 16.0567 13.3708Z" fill="white"/>
</svg>
